<svg width="12" height="12" viewBox="0 0 12 12" fill="none" xmlns="http://www.w3.org/2000/svg">
<path d="M9.9331 7.94045L9.92775 2.53711C9.92775 2.23096 9.729 2.01611 9.40675 2.01611H4.00342C3.70264 2.01611 3.49853 2.24707 3.49853 2.50489C3.49853 2.7627 3.72949 2.98291 3.98193 2.98291H5.85107L8.47215 2.89698L7.47315 3.77246L2.15039 9.10595C2.05371 9.20265 2 9.32615 2 9.44435C2 9.70215 2.23096 9.94385 2.49951 9.94385C2.62304 9.94385 2.74121 9.9009 2.83789 9.79885L8.1714 4.47071L9.0576 3.46631L8.96095 5.97461V7.9619C8.96095 8.21435 9.18115 8.4507 9.44435 8.4507C9.70215 8.4507 9.9331 8.23045 9.9331 7.94045Z" fill="#212121"/>
</svg>
